<svg width="250" height="64" viewBox="0 0 250 64" xmlns="http://www.w3.org/2000/svg"><g fill="#000" fill-rule="evenodd"><path d="M78.577 54.045c0 .478-.198.789-.565.988-.736.423-2.208.596-3.225.596-2.607 0-5.182-.85-7.416-3.032-.99-.957-3-3.85-3-7.836 0-3.316 1.158-5.884 2.8-7.188 2.153-1.7 4.274-1.868 6.06-1.868 3.648 0 5.942 1.214 6.651 2.292.426.678.565 1.471.594 1.868.03.253.058.423.2.423.197 0 .25-.14.25-.591 0-2.838.2-3.624.2-4.02 0-.116-.053-.227-.342-.253-.707-.03-1.7-.142-2.294-.282-.534-.113-2.544-.485-4.328-.485-2.176 0-4.98.2-7.527 1.784-2.52 1.585-4.727 4.78-4.727 9.313 0 3.537 1.642 6.56 3.367 8.065 3.145 2.743 7.163 3.025 9.31 3.025 1.645 0 4.186-.31 6-1.275.338-.197.367-.25.367-1.524v-3.172c0-1.188 0-2.036.056-2.94.057-.994.281-1.475 1.048-1.619.34-.053.51-.084.707-.084.115 0 .226-.053.226-.17 0-.164-.14-.222-.452-.222-.851 0-2.633.082-2.773.082-.139 0-1.923-.082-3.2-.082-.31 0-.452.055-.452.221 0 .118.115.17.228.17.253 0 .736.032.96.085 1.135.313 1.272.625 1.272 2.922v4.809h.005zM86.975 53.77c-.44 1.213-.926 2.134-2.044 2.278a6.012 6.012 0 01-.703.048c-.122 0-.216.053-.216.149 0 .144.144.192.462.192 1.137 0 2.472-.07 2.739-.07.266 0 1.308.07 1.892.07.216 0 .363-.05.363-.192 0-.094-.072-.15-.245-.15h-.24c-.414 0-.926-.22-.926-.699 0-.437.122-1.017.343-1.625l1.453-4.292c.05-.126.125-.2.245-.2h5.216c.12 0 .17.05.22.151l2.256 5.966c.145.385 0 .601-.151.652-.096.029-.169.072-.169.17 0 .147.267.147.73.166 1.67.051 3.442.051 3.808.051.264 0 .486-.05.486-.192 0-.123-.097-.15-.246-.15-.242 0-.608-.019-.969-.144-.51-.149-1.212-.534-2.084-2.693-1.48-3.686-5.286-13.704-5.656-14.625-.289-.752-.387-.87-.531-.87-.15 0-.246.147-.534.943l-5.5 15.067zm3.39-5.362c-.067 0-.12-.05-.067-.17l2.132-6.548c.12-.365.24-.365.364 0l2.303 6.548c.024.098.024.17-.094.17h-4.638zM108.288 39.144l3.143.05c2.394.046 2.97.606 3.07 1.33l.022.27c.024.338.076.41.203.41.098 0 .17-.1.17-.315 0-.267.074-1.94.074-2.669 0-.144 0-.288-.123-.288-.104 0-.327.048-.7.12-.398.05-.972.12-1.774.12h-9.353c-.297 0-1.247-.048-1.972-.12-.67-.05-.922-.289-1.093-.289-.099 0-.198.315-.255.457-.047.193-.546 2.282-.546 2.525 0 .147.05.219.123.219.1 0 .179-.048.253-.245.071-.166.146-.342.425-.75.398-.585.992-.753 2.54-.775l3.695-.05v10.262c0 2.326 0 4.242-.126 5.262-.099.702-.222 1.238-.725 1.332-.225.05-.521.098-.746.098-.154 0-.2.075-.2.15 0 .144.125.192.397.192.752 0 2.32-.07 2.442-.07.128 0 1.701.07 3.066.07.28 0 .406-.07.406-.193 0-.072-.052-.149-.205-.149-.22 0-.774-.048-1.118-.098-.75-.094-.9-.63-.975-1.332-.123-1.02-.123-2.936-.123-5.262V39.144h.005zM119.628 49.404c0 2.325 0 4.242-.123 5.261-.099.7-.219 1.239-.702 1.332a3.61 3.61 0 01-.726.099c-.147 0-.195.074-.195.149 0 .144.12.192.385.192.367 0 .92-.024 1.409-.05.507 0 .92-.022.969-.022.704 0 2.327.142 5.99.142.952 0 1.14 0 1.305-.632.125-.51.318-2.155.318-2.35 0-.168 0-.365-.142-.365-.123 0-.176.099-.222.365-.168.994-.459 1.48-1.089 1.751-.63.262-1.7.262-2.33.262-2.376 0-2.739-.315-2.813-1.986-.022-.512 0-3.323 0-4.148v-2.14c0-.094.045-.17.166-.17.418 0 2.818.05 3.467.127.952.093 1.169.507 1.265.848.096.32.096.556.096.799 0 .122.048.223.166.223.17 0 .17-.269.17-.464 0-.173.051-1.063.097-1.553.077-.8.195-1.21.195-1.354 0-.144-.046-.192-.118-.192-.099 0-.197.122-.366.315-.218.245-.555.288-1.14.339-.56.05-3.544.05-3.856.05-.123 0-.147-.074-.147-.243v-6.691c0-.169.046-.246.147-.246.269 0 2.91.024 3.32.075 1.313.144 1.556.433 1.727.825.12.288.144.7.144.87 0 .197.05.315.197.315.094 0 .145-.144.169-.262.048-.296.093-1.361.117-1.604.075-.678.198-.971.198-1.142 0-.123-.03-.216-.094-.216-.128 0-.221.093-.342.117-.197.05-.584.099-1.048.123-.553.024-5.381.024-5.555.024-.125 0-1.651-.07-2.743-.07-.262 0-.387.048-.387.193 0 .093.096.144.194.144.222 0 .633.029.83.074.798.171.986.558 1.041 1.386.048.774.048 1.452.048 5.234v4.266h.008zM136.183 56.779c1.358 0 2.725-.294 3.808-1.025 1.738-1.183 2.143-3.032 2.143-4.025 0-1.938-.707-3.44-3.688-5.699l-.698-.531c-2.378-1.868-3.076-2.7-3.076-4.076 0-1.767 1.358-2.813 3.096-2.813 2.326 0 3.004 1.02 3.149 1.284.157.267.307.923.335 1.212.03.195.057.317.2.317.132 0 .18-.168.18-.553 0-1.654.097-2.455.097-2.578 0-.12-.05-.165-.25-.165s-.405-.025-.885-.123c-.63-.147-1.358-.24-2.348-.24-3.199 0-5.217 1.767-5.217 4.364 0 1.65.6 3.152 3.279 5.259l1.132.904c2.174 1.717 2.906 2.686 2.906 4.362 0 1.553-1.192 3.222-3.608 3.222-1.69 0-3.356-.671-3.739-2.47-.07-.339-.07-.68-.07-.897 0-.194-.025-.269-.18-.269-.122 0-.17.127-.2.392-.025.387-.123 1.354-.123 2.573 0 .651.025.75.376.918 1.03.481 2.2.657 3.38.657M158.28 44.9c.305-.211.35-.512.203-.736h-2.555c.55-1.688.958-3.294 1.922-4.628.487-.674.997-1.07 1.59-1.07.537 0 1.188.358 1.252 1.55.02.142.101.32.284.32.33 0 .878-.615.878-1.233 0-.799-.82-1.313-1.676-1.313-1.202 0-2.407.476-3.436 1.652-1.202 1.39-1.739 2.938-2.27 4.725h-1.749c-.274.18-.359.56-.15.736h1.696c-.98 3.243-1.657 6.658-2.701 9.979-.425 1.349-.913 1.65-1.286 1.65-.41 0-.942-.277-1.222-.741-.168-.255-.309-.414-.598-.174-.141.099-.381.272-.381.717 0 .337.38 1.012 1.323 1.012 1.207 0 2.082-.776 2.325-1.012.433-.38 1.051-1.474 1.62-3.26.675-2.184 1.266-4.391 1.922-6.599.178-.591.348-1.233.467-1.57h2.543V44.9zM165.52 43.893c-.813 0-1.705.295-2.744 1.291-1.349 1.286-2.084 3.217-2.164 4.45-.118 1.706.717 2.646 1.986 2.646.544 0 1.607-.104 2.84-1.373 1.477-1.51 2.051-3.42 2.109-4.514.082-1.445-.613-2.5-2.027-2.5m-.13.594c.69 0 .808.697.789 1.31-.039 1.053-.972 3.674-1.852 4.848-.635.853-1.132 1.036-1.563 1.036-.582 0-.858-.577-.812-1.27.05-1.053.827-3.419 1.981-4.97.572-.774 1.053-.954 1.457-.954M173.833 44.487c.122-.342-.353-.594-.625-.594-.968 0-3.039 1.565-3.571 2.356-.02.18.142.34.352.3.493-.497 1.568-1.365 1.963-1.365.165 0 .143.197 0 .572l-1.9 4.833c-.353.868-.25 1.688.595 1.688 1.113 0 3.679-2.546 5.171-4.352l.038.02-1.408 3.633c-.122.315.19.7.518.7 1.105 0 3.078-1.57 3.618-2.528-.02-.235-.19-.315-.375-.279-.537.62-1.625 1.554-2.018 1.554-.21 0-.19-.238-.082-.498.865-2.359 2.208-5.627 2.413-6.158-.078-.24-.58-.44-1.01-.36-.678 1.211-1.759 3.517-3.64 5.306-1.074 1.012-1.9 1.647-2.207 1.647-.23 0-.338-.197-.143-.67l2.31-5.805zM185.633 44.708c.183-.462-.038-.815-.517-.815-.99 0-2.207.815-2.957 1.846-.02.157.074.296.24.296.652-.572 1.349-.988 1.808-.988.159 0 .159.192.06.452-.103.281-2.207 6-2.306 6.261-.182.453.351.52.573.52.178 0 .262-.065.356-.245 1.173-2.184 1.99-3.732 3.049-5.045 1.08-1.368 2.262-2.362 2.734-2.362.3 0 .324.239.324.474 0 .397-.262 1.092-.418 1.45-.46.993-1.195 2.943-1.611 3.917-.419.99-.479 1.135-.479 1.31 0 .239.3.5.479.5 1.089 0 2.662-.954 3.421-2.23 0-.157-.045-.316-.327-.275-.567.695-1.527 1.354-1.858 1.354-.147 0-.125-.18-.048-.38.064-.154 1.488-3.398 1.851-4.39.164-.457.32-1.07.32-1.39 0-.657-.342-1.07-1.113-1.07-1.494 0-3.458 2.183-4.865 4.33l-.06-.038 1.344-3.482zM200.474 44.51c-.214-.42-.697-.617-1.012-.617-.952 0-2.208.553-3.559 1.765-1.568 1.409-2.638 3.777-2.638 5.184 0 .796.411 1.435 1.186 1.435 1.926 0 3.426-1.928 4.79-3.758l.074.017-.69 1.97c-.197.574-.26.891-.26 1.132 0 .32.22.64.638.64 1.038 0 2.837-1.636 3.378-2.725-.017-.18-.115-.257-.298-.257-.62.774-1.869 1.786-2.184 1.786-.177 0-.201-.197-.122-.456.183-.597 1.113-3.773 3.08-9.203.596-1.645.897-2.4 1.25-3.515l-.079-.118c-.849-.02-1.957.24-2.344.377-.08.077-.104.198-.06.275l.459.322c.281.18.221.538-.178 1.65l-1.43 4.097zm-1.053-.023c.498 0 .757.594.517 1.428-.291 1.053-.878 2.253-2.419 3.838-1.375 1.406-2.385 1.77-2.686 1.77-.178 0-.38-.183-.38-.421 0-.258 0-.616.618-1.886.613-1.252 2.042-3.14 2.84-3.876.52-.473 1.05-.853 1.51-.853M212.044 44.708a1.184 1.184 0 00-.4-.421.989.989 0 00-.473-.125c-.517 0-1.02.144-1.79.58-.817.456-1.67 1.252-2.625 2.56-1.315 1.813-1.753 3.403-1.753 3.855 0 .56.32 1.12.878 1.12.93 0 2.962-1.373 4.371-3.12l.06.023-.656 1.78c-.154.461-.197.642-.197.776 0 .154.122.541.572.541 1.094 0 2.503-1.12 3.345-2.231 0-.156-.147-.255-.281-.255-1.128.996-1.71 1.335-2.05 1.335-.158 0-.256-.123-.141-.46.64-1.808 2.366-6.199 2.667-6.937-.123-.252-.64-.454-.97-.29l-.557 1.269zm-1.494.216c.517 0 .852.34.996.717-.32 1.17-1.154 2.88-2.662 4.29-1.132 1.031-1.729 1.288-1.93 1.288-.179 0-.297-.137-.297-.375 0-1.406 1.212-4.013 2.484-5.145.62-.558.936-.775 1.41-.775M222.112 44.824c.255-.147.382-.557.243-.762h-2.17l.578-2.03c-.159-.206-.558-.248-.753-.121l-1.116 2.043-1.59.288c-.194.082-.259.372-.213.577h1.541l-1.858 5.705c-.198.617-.282.905-.282 1.178 0 .247.257.562.541.562.832 0 2.7-1.268 3.809-2.973.048-.248-.074-.373-.272-.373-.654.78-1.967 1.856-2.262 1.856-.164 0-.258-.125-.147-.513l1.794-5.44h2.157v.003zM223.687 51.558a.468.468 0 00.09.542c.105.115.23.18.336.18 1.467 0 3.652-1.792 3.963-2.371 0-.173-.105-.315-.31-.332-.721.774-1.85 1.467-2.206 1.467-.172 0-.15-.238-.067-.438l2.529-5.643c.256-.575.256-.755.126-.873-.09-.082-.195-.197-.344-.197-.695 0-2.326.735-3.494 1.983-.046.157.08.318.275.34 1.057-.818 1.616-1.054 1.76-1.054.146 0 .146.157.046.38l-2.704 6.016zm4.668-12.436c-.826 0-1.146.818-1.146 1.253 0 .356.215.752.762.752.661 0 1.126-.632 1.126-1.25 0-.435-.254-.755-.742-.755M236.681 43.893c-.818 0-1.714.295-2.746 1.291-1.354 1.286-2.087 3.217-2.167 4.45-.117 1.706.715 2.646 1.991 2.646.537 0 1.607-.104 2.838-1.373 1.474-1.51 2.046-3.42 2.109-4.514.079-1.445-.62-2.5-2.025-2.5m-.142.594c.7 0 .815.697.796 1.31-.043 1.053-.976 3.674-1.847 4.848-.634.853-1.132 1.036-1.577 1.036-.568 0-.846-.577-.808-1.27.055-1.053.834-3.419 1.986-4.97.577-.774 1.051-.954 1.45-.954M244.669 44.708c.187-.462-.043-.815-.53-.815-1.033 0-2.296.815-3.086 1.846-.02.157.087.296.25.296.682-.572 1.41-.988 1.885-.988.158 0 .158.192.058.452-.103.281-2.296 6-2.398 6.261-.186.453.37.52.6.52.19 0 .267-.065.37-.245 1.22-2.184 2.065-3.732 3.163-5.045 1.136-1.368 2.361-2.362 2.856-2.362.308 0 .328.239.328.474 0 .397-.265 1.092-.435 1.45-.473.993-1.236 2.943-1.67 3.917-.436.99-.499 1.135-.499 1.31 0 .239.308.5.498.5 1.138 0 2.768-.954 3.556-2.23 0-.157-.047-.316-.332-.275-.606.695-1.59 1.354-1.938 1.354-.148 0-.128-.18-.05-.38.062-.154 1.552-3.398 1.925-4.39.165-.457.333-1.07.333-1.39 0-.657-.358-1.07-1.163-1.07-1.543 0-3.591 2.183-5.06 4.33l-.062-.038 1.4-3.482zM3.274 21.63c0 2.777 0 5.063-.144 6.28-.118.838-.262 1.477-.848 1.587-.262.06-.61.118-.876.118-.17 0-.232.086-.232.175 0 .17.146.229.465.229.875 0 2.708-.086 2.852-.086.235 0 3.202.174 3.873.174 4.976 0 7.422-3.213 7.422-6.307 0-3.385-2.881-5.437-5.036-6.101 1.368-1.42 2.733-2.839 2.733-5.211 0-1.445-1.048-4.338-5.822-4.338-1.338 0-2.47.086-3.17.086-.146 0-1.979-.086-3.287-.086-.324 0-.465.059-.465.228 0 .12.116.177.232.177.262 0 .754.03.99.089.962.201 1.192.666 1.25 1.647.058.926.058 1.732.058 6.248v5.09h.005zM5.6 9.42c0-.17.09-.258.351-.32.465-.115 1.079-.142 1.395-.142 2.854 0 3.93 2.576 3.93 4.975 0 1.185-.435 2.227-1.046 2.92-.61.696-1.021.755-2.651.755-1.074 0-1.598-.084-1.776-.115-.144-.06-.203-.116-.203-.32V9.42zm0 9.171c0-.147.06-.204.176-.204.435 0 1.89 0 2.268.057.7.088 1.427.172 2.419.84 2.238 1.534 2.827 4.049 2.827 5.787 0 3.269-2.533 4.11-4.106 4.11-.524 0-1.776-.057-2.562-.436-.9-.435-.9-.838-.99-2.259-.03-.432-.03-4.018-.03-6.245v-1.65h-.002zM23.874 18.708c0-3.78 0-4.458.054-5.237.049-.851.257-1.262.954-1.383.31-.05.467-.072.65-.072.102 0 .21-.05.21-.149 0-.144-.134-.192-.421-.192-.775 0-2.404.072-2.534.072-.129 0-1.757-.072-2.611-.072-.285 0-.413.05-.413.192 0 .099.102.15.205.15.182 0 .518.023.8.096.575.122.831.536.882 1.358.054.777.054 1.455.054 5.237v4.268c0 2.328 0 4.247-.13 5.262-.103.704-.231 1.24-.75 1.341a4.507 4.507 0 01-.777.092c-.156 0-.207.074-.207.146 0 .147.13.193.415.193.777 0 2.406-.07 2.532-.07.133 0 1.762.07 3.183.07.287 0 .415-.07.415-.193 0-.07-.054-.146-.208-.146-.23 0-.802-.048-1.164-.092-.777-.1-.926-.637-1.008-1.341-.13-1.018-.13-2.936-.13-5.262v-4.268zM34.294 18.708c0-3.78 0-4.458.053-5.237.052-.851.252-1.262.982-1.383.303-.05.656-.072.836-.072.097 0 .2-.05.2-.149 0-.144-.128-.192-.405-.192-.758 0-2.599.072-2.724.072-.127 0-1.718-.072-2.85-.072-.276 0-.403.05-.403.192 0 .099.1.15.2.15.227 0 .658.023.858.071.832.169 1.035.558 1.085 1.383.052.777.052 1.455.052 5.237v4.268c0 2.328 0 4.247-.13 5.262-.1.704-.227 1.24-.732 1.341a4.262 4.262 0 01-.756.092c-.152 0-.202.074-.202.146 0 .147.127.193.402.193.38 0 .936-.022 1.438-.048.508 0 .936-.024 1.036-.024 1.463 0 3.128.146 6.76.146 1.337 0 1.41-.096 1.59-.654.202-.704.377-2.159.377-2.424 0-.269-.027-.365-.155-.365-.147 0-.2.123-.225.317-.075.46-.33 1.066-.657 1.455-.603.702-1.716.726-3.054.726-1.965 0-2.623-.168-3.026-.558-.452-.435-.555-1.986-.555-5.554v-4.319h.005zM48.227 18.708c0-3.78 0-4.458.05-5.237.051-.851.241-1.262.946-1.383.29-.05.632-.072.803-.072.094 0 .192-.05.192-.149 0-.144-.122-.192-.387-.192-.729 0-2.496.072-2.621.072-.123 0-1.652-.072-2.741-.072-.267 0-.39.05-.39.192 0 .099.099.15.195.15.219 0 .63.023.827.071.799.169.993.558 1.044 1.383.048.777.048 1.455.048 5.237v4.268c0 2.328 0 4.247-.12 5.262-.099.704-.22 1.24-.702 1.341a3.999 3.999 0 01-.731.092c-.147 0-.193.074-.193.146 0 .147.12.193.387.193.363 0 .9-.022 1.38-.048.489 0 .897-.024.996-.024 1.407 0 3.008.146 6.5.146 1.284 0 1.36-.096 1.531-.654.19-.704.361-2.159.361-2.424 0-.269-.024-.365-.147-.365-.146 0-.192.123-.216.317-.072.46-.317 1.066-.635 1.455-.58.702-1.647.726-2.933.726-1.893 0-2.525-.168-2.91-.558-.438-.435-.536-1.986-.536-5.554v-4.319h.002zM64.513 27.253c1.433 0 3.48-.633 4.918-2.295 1.575-1.833 2.027-3.92 2.087-4.553.04-.4.082-1.41.082-1.79.634.526 1.31 1.325 1.411 1.495.108.166.267.27.493.124.368-.232 1.188-.482 1.537-.527.226-.042.41-.059.533-.21a1.42 1.42 0 00.39-.99c0-.546-.204-1.179-.757-1.179-.368 0-.655.275-.655.527 0 .064.041.168.082.316.041.127.082.295.082.527 0 .359-.204.653-.414.653-.363 0-.428-.106-.897-.549-1.007-.925-1.599-1.642-2.726-1.642-.286 0-1.21.168-2.027.866-1.025.865-1.395 1.81-1.395 2.357 0 .566.452.845.882.845.575 0 .676-.442.676-.59 0-.127-.082-.36-.147-.587-.057-.235-.163-.504-.163-.697 0-.718.858-1.348 1.496-1.348.413 0 .841.146 1.065.36-.06 1.725-.33 2.78-1.106 4.255-1.188 2.255-3.278 3.435-4.978 3.435-1.575 0-3.667-.902-3.626-3.6v-.169c2.13-1.494 5.572-4.175 7.272-5.901 1.904-1.915 2.58-3.223 2.58-4.319 0-.82-.472-1.115-.943-1.115-.39 0-.82.294-.82.866 0 .23.058.294.224.465.146.145.25.336.25.633 0 .546-.452 1.39-.738 1.766-.573.779-1.989 2.255-2.888 3.015-.185-.27-.39-.822-1.292-.822-.45 0-1.721.21-3.053 1.643-1.638 1.726-1.965 3.477-1.965 4.53.005 2.165 1.296 4.205 4.53 4.205m-3.111-5.772c.142-.883.469-1.727 1.106-2.59.616-.823 1.286-1.138 1.577-1.138.39 0 .674.253.674.65 0 .045 0 .318-.02.508-.675.61-1.882 1.536-3.337 2.57M102.53 8.346c-.058-.55-.147-.779-.344-.779-.2 0-.313.202-.426.462L93.44 26.2 84.78 8.002c-.145-.322-.253-.435-.426-.435-.169 0-.253.202-.313.521l-2.037 18.863c-.113 1.099-.197 2.224-1.135 2.401-.423.089-.62.089-.849.089-.141 0-.278.054-.278.142 0 .207.194.261.478.261.765 0 2.12-.086 2.376-.086.228 0 1.584.086 2.635.086.337 0 .505-.054.505-.26 0-.087-.11-.143-.226-.143-.17 0-.594-.032-1.075-.148a.918.918 0 01-.736-.894c0-.492 0-1.013.03-1.478l1.132-13.423h.113c.315.78 3.482 7.726 3.737 8.244.144.29 2.575 5.295 3.313 6.713.536 1.04.676 1.332.873 1.332.255 0 .344-.263.938-1.538l6.932-15.04h.084l1.356 14.924c.058.521.032 1.013-.113 1.042-.139.032-.197.089-.197.207 0 .142.145.231.791.288 1.051.086 4.103.172 4.728.172.344 0 .594-.086.594-.261 0-.116-.084-.143-.226-.143-.286 0-1.017 0-1.837-.263-1.222-.403-1.42-2.022-1.532-3.065L102.53 8.346zM111.165 22.808c0 2.328 0 4.244-.128 5.261-.1.705-.225 1.236-.727 1.337-.23.048-.533.094-.758.094-.153 0-.205.075-.205.147 0 .146.127.194.407.194.378 0 .958-.026 1.463-.05.53 0 .958-.022 1.01-.022.73 0 2.421.145 6.227.145.986 0 1.188 0 1.36-.633.128-.507.331-2.157.331-2.354 0-.17 0-.365-.155-.365-.123 0-.175.103-.223.365-.18.993-.482 1.479-1.14 1.746-.653.267-1.766.267-2.418.267-2.476 0-2.851-.315-2.929-1.986-.022-.51 0-3.326 0-4.148V20.67c0-.098.05-.17.178-.17.43 0 2.923.05 3.606.122.985.097 1.21.51 1.31.852.1.312.1.553.1.798 0 .12.05.221.173.221.178 0 .178-.267.178-.464 0-.168.052-1.063.105-1.551.072-.8.2-1.214.2-1.356 0-.147-.05-.197-.128-.197-.097 0-.2.12-.38.317-.223.243-.575.289-1.183.342-.583.05-3.686.05-4.011.05-.125 0-.153-.075-.153-.245v-6.697c0-.168.05-.243.153-.243.28 0 3.026.022 3.456.072 1.363.145 1.615.436 1.793.825.128.291.15.702.15.87 0 .198.053.316.205.316.1 0 .15-.145.175-.263.048-.29.1-1.358.128-1.603.075-.676.202-.967.202-1.14 0-.123-.027-.217-.102-.217-.128 0-.228.094-.353.125a7.63 7.63 0 01-1.088.116c-.577.026-5.601.026-5.774.026-.132 0-1.72-.072-2.856-.072-.275 0-.405.048-.405.195 0 .096.103.144.205.144.228 0 .658.024.855.075.836.168 1.036.553 1.086 1.38.052.777.052 1.455.052 5.242v4.268h.008zM127.6 18.538c0-3.785 0-4.463.053-5.242.052-.85.252-1.258.98-1.38.308-.051.66-.075.835-.075.103 0 .21-.048.21-.144 0-.15-.132-.195-.41-.195-.763 0-2.596.072-2.723.072-.128 0-1.72-.072-2.854-.072-.275 0-.402.048-.402.195 0 .096.102.144.205.144.225 0 .653.024.855.074.835.169 1.038.553 1.083 1.38.055.777.055 1.455.055 5.243v4.268c0 2.327 0 4.244-.125 5.26-.1.705-.23 1.237-.738 1.34-.225.046-.53.092-.757.092-.15 0-.203.074-.203.146 0 .147.127.195.405.195.38 0 .935-.026 1.44-.05.503 0 .936-.024 1.033-.024 1.463 0 3.134.146 6.757.146 1.338 0 1.41-.098 1.593-.654.2-.702.375-2.154.375-2.426 0-.272-.02-.363-.147-.363-.158 0-.205.122-.23.317-.073.46-.323 1.065-.655 1.453-.61.704-1.716.73-3.054.73-1.97 0-2.628-.17-3.028-.555-.455-.44-.558-1.99-.558-5.554v-4.321h.005zM141.868 18.538c0-3.785 0-4.463.054-5.242.053-.85.259-1.258.954-1.38.315-.051.472-.075.649-.075.107 0 .207-.048.207-.144 0-.15-.125-.195-.41-.195-.782 0-2.406.072-2.529.072-.136 0-1.767-.072-2.619-.072-.28 0-.418.048-.418.195 0 .096.103.144.213.144.175 0 .516.024.803.1.572.121.83.53.877 1.355.054.776.054 1.454.054 5.242v4.268c0 2.327 0 4.244-.128 5.26-.1.705-.234 1.237-.752 1.34a4.506 4.506 0 01-.78.092c-.15 0-.21.074-.21.146 0 .147.136.195.416.195.777 0 2.408-.072 2.544-.072.126 0 1.75.072 3.175.072.285 0 .413-.072.413-.195 0-.07-.048-.146-.202-.146-.236 0-.803-.048-1.162-.092-.788-.103-.936-.635-1.013-1.34-.136-1.019-.136-2.935-.136-5.26v-4.268zM151.05 14.923c.797.87 3.592 3.93 6.472 6.962 2.63 2.763 6.202 6.331 6.472 6.571 1.32 1.287 1.613 1.554 1.81 1.554.171 0 .225-.123.225-1.727l.05-14.21c0-1.456.095-1.99.912-2.158.307-.074.474-.074.602-.074.174 0 .27-.075.27-.166 0-.147-.177-.17-.447-.17-1.013 0-1.834.071-2.102.071-.28 0-1.475-.072-2.578-.072-.308 0-.504.027-.504.17 0 .092.032.167.196.167.202 0 .772.024 1.215.122.77.193.941.729.97 2.306l.273 12.321c-.796-.8-3.5-3.758-5.953-6.328-3.817-4.004-7.514-7.909-7.883-8.32-.25-.245-.666-.78-.867-.78-.2 0-.27.27-.27 1.215l-.03 13.896c0 2.207-.126 2.914-.745 3.08-.369.123-.816.147-1.01.147-.128 0-.2.05-.2.147 0 .168.15.194.394.194 1.118 0 2.156-.072 2.382-.072.226 0 1.216.072 2.625.072.302 0 .442-.05.442-.194 0-.096-.066-.147-.191-.147-.222 0-.77-.024-1.244-.147-.666-.194-.917-.827-.966-2.813l-.32-11.617zM172.116 22.81c0 2.326 0 4.242-.13 5.262-.099.704-.221 1.236-.72 1.337a3.895 3.895 0 01-.74.093c-.155 0-.202.075-.202.147 0 .147.126.195.398.195.745 0 2.306-.072 2.424-.072.256 0 3.375.29 5.506.29 4.215 0 6.45-1.7 7.514-2.789 1.384-1.43 2.68-3.784 2.68-6.84 0-2.886-1.168-4.899-2.407-6.161-2.952-2.982-7.492-2.765-9.938-2.765-1.487 0-3.048.072-3.355.072-.12 0-1.681-.072-2.802-.072-.266 0-.386.048-.386.194 0 .097.096.145.197.145.216 0 .639.024.84.074.816.17 1.013.553 1.067 1.38.052.777.052 1.455.052 5.242v4.268h.002zm2.08-4.662c0-1.868 0-4.34.024-5.163 0-.269.071-.39.302-.488.192-.096 1.109-.168 1.608-.168 2.947 0 5.776.339 8.109 2.741 1.013 1.044 2.377 3.035 2.377 6.115 0 2.229-.693 4.56-1.979 5.795-1.465 1.43-3.596 2.256-5.9 2.256-2.927 0-3.897-.51-4.215-.972-.206-.264-.255-1.238-.275-1.844-.027-.46-.051-2.691-.051-5.264v-3.008zM192.189 26.664c-.432 1.182-.908 2.08-2.01 2.223-.19.021-.526.047-.69.047-.128 0-.218.05-.218.143 0 .143.145.19.458.19 1.125 0 2.434-.07 2.7-.07.258 0 1.29.07 1.864.07.214 0 .356-.049.356-.19 0-.094-.069-.143-.242-.143h-.237c-.412 0-.912-.213-.912-.687 0-.427.12-.992.334-1.583l1.434-4.188c.05-.12.116-.188.246-.188h5.139c.116 0 .165.05.213.143l2.223 5.816c.15.382 0 .596-.14.64-.097.021-.17.068-.17.164 0 .144.267.144.718.165 1.652.049 3.394.049 3.754.049.263 0 .48-.05.48-.19 0-.12-.096-.143-.24-.143-.243 0-.603-.026-.963-.143-.5-.143-1.19-.52-2.055-2.624-1.453-3.598-5.207-13.367-5.57-14.265-.282-.734-.374-.851-.523-.851-.145 0-.242.145-.529.924l-5.42 14.691zm3.346-5.23c-.068 0-.12-.046-.068-.163l2.107-6.388c.111-.352.232-.352.355 0l2.268 6.388c.024.093.024.164-.092.164h-4.57z"/></g></svg>
